<svg id="logo-gen2" width="503" height="100" viewBox="0 0 503 100" fill="none" xmlns="http://www.w3.org/2000/svg" class="w-full" version="1.1" xmlns:xlink="http://www.w3.org/1999/xlink" xmlns:svgjs="http://svgjs.dev/svgjs"><line x1="50" y1="21.05573272705078" x2="50" y2="78.94426678073091" stroke-linecap="square" stroke-width="2" transform="matrix(1,0,0,1,0,0)"></line><line x1="50" y1="3.0640487670898438" x2="50" y2="96.9359497919018" stroke-linecap="square" stroke-width="2" stroke="#e54da8" transform="matrix(0.984807753012208,0.17364817766693033,-0.17364817766693033,0.984807753012208,9.442021232736117,-7.9227965339569195)"></line><line x1="50" y1="41.66659450531006" x2="50" y2="58.33340535265587" stroke-linecap="square" stroke-width="2" stroke="#e54da8" transform="matrix(0.9396926207859084,0.3420201433256687,-0.3420201433256687,0.9396926207859084,20.116376126988012,-14.08563820557886)"></line><line x1="50" y1="40.71320152282715" x2="50" y2="59.28679815505658" stroke-linecap="square" stroke-width="2" stroke="#4de58a" transform="matrix(0.8660254037844387,0.49999999999999994,-0.49999999999999994,0.8660254037844387,31.698729810778058,-18.30127018922194)"></line><line x1="50" y1="4.583621978759766" x2="50" y2="95.41637466015888" stroke-linecap="square" stroke-width="2" transform="matrix(0.766044443118978,0.6427876096865393,-0.6427876096865393,0.766044443118978,43.837155876337924,-20.44160353274549)"></line><line x1="50" y1="5.141391754150391" x2="50" y2="94.85860453196625" stroke-linecap="square" stroke-width="2" stroke="#4d5ce5" transform="matrix(0.6427876096865394,0.766044443118978,-0.766044443118978,0.6427876096865394,56.16283874939429,-20.44160400293299)"></line><line x1="50" y1="9.26797866821289" x2="50" y2="90.7320179688434" stroke-linecap="square" stroke-width="2" stroke="#e54da8" transform="matrix(0.5000000000000001,0.8660254037844386,-0.8660254037844386,0.5000000000000001,68.30126688559719,-18.30127209657057)"></line><line x1="50" y1="14.098896026611328" x2="50" y2="85.90110487124967" stroke-linecap="square" stroke-width="2" transform="matrix(0.3420201433256688,0.9396926207859083,-0.9396926207859083,0.3420201433256688,79.88362745765484,-14.085635695584898)"></line><line x1="50" y1="39.50351524353027" x2="50" y2="60.49648547879817" stroke-linecap="square" stroke-width="2" transform="matrix(0.17364817766693041,0.984807753012208,-0.984807753012208,0.17364817766693041,90.55798064563561,-7.922794957815903)"></line><line x1="50" y1="43.60459280014038" x2="50" y2="56.39540710047186" stroke-linecap="square" stroke-width="2" stroke="#4de58a" transform="matrix(6.123233995736766e-17,1,-1,6.123233995736766e-17,100,0)"></line><line x1="50" y1="27.921903610229492" x2="50" y2="72.0780975762176" stroke-linecap="square" stroke-width="2" transform="matrix(-0.1736481776669303,0.984807753012208,-0.984807753012208,-0.1736481776669303,107.9227946555852,9.442018994179868)"></line><line x1="50" y1="24.715253829956055" x2="50" y2="75.28474749375331" stroke-linecap="square" stroke-width="2" transform="matrix(-0.3420201433256687,0.9396926207859084,-0.9396926207859084,-0.3420201433256687,114.08563641325742,20.116373567287727)"></line><line x1="50" y1="1.6598472595214844" x2="50" y2="98.34015647621976" stroke-linecap="square" stroke-width="2" transform="matrix(-0.4999999999999998,0.8660254037844387,-0.8660254037844387,-0.4999999999999998,118.30127349284666,31.69873553282395)"></line><line x1="50" y1="35.389344215393066" x2="50" y2="64.61065661718712" stroke-linecap="square" stroke-width="2" stroke="#4de58a" transform="matrix(-0.6427876096865394,0.766044443118978,-0.766044443118978,-0.6427876096865394,120.44160264027587,43.83715832837807)"></line><line x1="50" y1="24.27074432373047" x2="50" y2="75.72925379743096" stroke-linecap="square" stroke-width="2" stroke="#4de58a" transform="matrix(-0.7660444431189779,0.6427876096865395,-0.6427876096865395,-0.7660444431189779,120.44160264027587,56.162841671621926)"></line><line x1="50" y1="34.75435924530029" x2="50" y2="65.2456403748472" stroke-linecap="square" stroke-width="2" transform="matrix(-0.8660254037844387,0.49999999999999994,-0.49999999999999994,-0.8660254037844387,118.30127114289625,68.30127374838294)"></line><line x1="50" y1="34.766804695129395" x2="50" y2="65.23319574894167" stroke-linecap="square" stroke-width="2" stroke="#4de58a" transform="matrix(-0.9396926207859083,0.3420201433256689,-0.3420201433256689,-0.9396926207859083,114.0856375532272,79.88362017334191)"></line><line x1="50" y1="33.021066665649414" x2="50" y2="66.97893190260399" stroke-linecap="square" stroke-width="2" transform="matrix(-0.984807753012208,0.17364817766693028,-0.17364817766693028,-0.984807753012208,107.92279653395691,90.55797876726389)"></line><line x1="50" y1="41.71777057647705" x2="50" y2="58.282229835866545" stroke-linecap="square" stroke-width="2" stroke="#4de58a" transform="matrix(-1,1.2246467991473532e-16,-1.2246467991473532e-16,-1,100,100)"></line><line x1="50" y1="9.631488800048828" x2="50" y2="90.36851429275364" stroke-linecap="square" stroke-width="2" stroke="#4de58a" transform="matrix(-0.984807753012208,-0.17364817766693047,0.17364817766693047,-0.984807753012208,90.55797810484864,107.92280410539763)"></line><line x1="50" y1="28.216764450073242" x2="50" y2="71.78323724848342" stroke-linecap="square" stroke-width="2" stroke="#4d5ce5" transform="matrix(-0.9396926207859084,-0.34202014332566866,0.34202014332566866,-0.9396926207859084,79.88362452536364,114.08563450590879)"></line><line x1="50" y1="28.785139083862305" x2="50" y2="71.21486035511035" stroke-linecap="square" stroke-width="2" transform="matrix(-0.8660254037844386,-0.5000000000000001,0.5000000000000001,-0.8660254037844386,68.30127114289624,118.30126663006094)"></line><line x1="50" y1="39.438815116882324" x2="50" y2="60.56118398877423" stroke-linecap="square" stroke-width="2" transform="matrix(-0.7660444431189781,-0.6427876096865393,0.6427876096865393,-0.7660444431189781,56.16284167162194,120.44160264027587)"></line><line x1="50" y1="13.060371398925781" x2="50" y2="86.93962926676666" stroke-linecap="square" stroke-width="2" stroke="#e54da8" transform="matrix(-0.6427876096865395,-0.7660444431189779,0.7660444431189779,-0.6427876096865395,43.837158328378074,120.44160264027587)"></line><line x1="50" y1="31.61968994140625" x2="50" y2="68.38031166458474" stroke-linecap="square" stroke-width="2" stroke="#4de58a" transform="matrix(-0.5000000000000004,-0.8660254037844385,0.8660254037844385,-0.5000000000000004,31.698729810778097,118.30127018922195)"></line><line x1="50" y1="3.1872100830078125" x2="50" y2="96.81278792948807" stroke-linecap="square" stroke-width="2" transform="matrix(-0.3420201433256694,-0.9396926207859082,0.9396926207859082,-0.3420201433256694,20.11637612698806,114.08563820557887)"></line><line x1="50" y1="32.104928970336914" x2="50" y2="67.89507119918449" stroke-linecap="square" stroke-width="2" transform="matrix(-0.17364817766693033,-0.984807753012208,0.984807753012208,-0.17364817766693033,9.442021232736117,107.92279653395693)"></line><line x1="50" y1="34.26050662994385" x2="50" y2="65.73949408434407" stroke-linecap="square" stroke-width="2" transform="matrix(-1.8369701987210297e-16,-1,1,-1.8369701987210297e-16,7.105427357601002e-15,100)"></line><line x1="50" y1="7.364025115966797" x2="50" y2="92.63597598036944" stroke-linecap="square" stroke-width="2" stroke="#e54da8" transform="matrix(0.17364817766692997,-0.9848077530122081,0.9848077530122081,0.17364817766692997,-7.922800290700344,90.55798191954594)"></line><line x1="50" y1="16.181453704833984" x2="50" y2="83.81854409674736" stroke-linecap="square" stroke-width="2" transform="matrix(0.34202014332566816,-0.9396926207859085,0.9396926207859085,0.34202014332566816,-14.085634620935963,79.88362136301807)"></line><line x1="50" y1="23.556087493896484" x2="50" y2="76.44391418420116" stroke-linecap="square" stroke-width="2" stroke="#4de58a" transform="matrix(0.5000000000000001,-0.8660254037844386,0.8660254037844386,0.5000000000000001,-18.301271841034307,68.30127114289624)"></line><line x1="50" y1="0.4867362976074219" x2="50" y2="99.51326695482123" stroke-linecap="square" stroke-width="2" stroke="#4de58a" transform="matrix(0.6427876096865393,-0.7660444431189781,0.7660444431189781,0.6427876096865393,-20.44160556250351,56.16284303427907)"></line><line x1="50" y1="11.736385345458984" x2="50" y2="88.26361420888631" stroke-linecap="square" stroke-width="2" transform="matrix(0.7660444431189778,-0.6427876096865396,0.6427876096865396,0.7660444431189778,-20.441600188235725,43.837157435908466)"></line><line x1="50" y1="29.388410568237305" x2="50" y2="70.61158851418344" stroke-linecap="square" stroke-width="2" stroke="#4de58a" transform="matrix(0.8660254037844384,-0.5000000000000004,0.5000000000000004,0.8660254037844384,-18.301269235547622,31.69872955524184)"></line><line x1="50" y1="1.6553459167480469" x2="50" y2="98.34465078318506" stroke-linecap="square" stroke-width="2" stroke="#4d5ce5" transform="matrix(0.9396926207859084,-0.3420201433256686,0.3420201433256686,0.9396926207859084,-14.085636900875542,20.11637589693361)"></line><line x1="50" y1="4.29498291015625" x2="50" y2="95.70501670416373" stroke-linecap="square" stroke-width="2" stroke="#4de58a" transform="matrix(0.9848077530122079,-0.17364817766693127,0.17364817766693127,0.9848077530122079,-7.922796533956955,9.442021232736167)"></line><line x1="50" y1="13.053485870361328" x2="50" y2="86.94651310696563" stroke-linecap="square" stroke-width="2" transform="matrix(1,0,0,1,0,0)"></line><line x1="50" y1="25.66993522644043" x2="50" y2="74.33006638100309" stroke-linecap="square" stroke-width="2" stroke="#e54da8" transform="matrix(0.984807753012208,0.17364817766693033,-0.17364817766693033,0.984807753012208,9.442020901528501,-7.922796562933833)"></line><line x1="50" y1="32.88035583496094" x2="50" y2="67.1196441013912" stroke-linecap="square" stroke-width="2" stroke="#4de58a" transform="matrix(0.9396926207859084,0.3420201433256687,-0.3420201433256687,0.9396926207859084,20.116376126988012,-14.08563820557886)"></line><line x1="50" y1="14.587383270263672" x2="50" y2="85.4126154607987" stroke-linecap="square" stroke-width="2" stroke="#4d5ce5" transform="matrix(0.8660254037844387,0.49999999999999994,-0.49999999999999994,0.8660254037844387,31.698727903429425,-18.301270700294452)"></line><line x1="50" y1="41.551544189453125" x2="50" y2="58.4484553529895" stroke-linecap="square" stroke-width="2" stroke="#e54da8" transform="matrix(0.766044443118978,0.6427876096865393,-0.6427876096865393,0.766044443118978,43.83715832837806,-20.441602640275875)"></line><line x1="50" y1="12.051841735839844" x2="50" y2="87.94815499727282" stroke-linecap="square" stroke-width="2" stroke="#4d5ce5" transform="matrix(0.6427876096865394,0.766044443118978,-0.766044443118978,0.6427876096865394,56.16284167162193,-20.441602640275875)"></line><line x1="50" y1="20.7602481842041" x2="50" y2="79.23975120792207" stroke-linecap="square" stroke-width="2" stroke="#4de58a" transform="matrix(0.5000000000000001,0.8660254037844386,-0.8660254037844386,0.5000000000000001,68.30127184103429,-18.301269235547622)"></line><line x1="50" y1="13.326309204101562" x2="50" y2="86.67368813835957" stroke-linecap="square" stroke-width="2" stroke="#4de58a" transform="matrix(0.3420201433256688,0.9396926207859083,-0.9396926207859083,0.3420201433256688,79.88362387301197,-14.08563820557886)"></line><line x1="50" y1="11.09280014038086" x2="50" y2="88.90719888368835" stroke-linecap="square" stroke-width="2" stroke="#4de58a" transform="matrix(0.17364817766693041,0.984807753012208,-0.984807753012208,0.17364817766693041,90.55797501052044,-7.92279968623896)"></line><line x1="50" y1="26.405384063720703" x2="50" y2="73.59461740153766" stroke-linecap="square" stroke-width="2" stroke="#4de58a" transform="matrix(6.123233995736766e-17,1,-1,6.123233995736766e-17,100.00000190734863,0.0000019073486328125)"></line><line x1="50" y1="36.98127746582031" x2="50" y2="63.01872158803906" stroke-linecap="square" stroke-width="2" transform="matrix(-0.1736481776669303,0.984807753012208,-0.984807753012208,-0.1736481776669303,107.92279653395691,9.44202123273611)"></line><path d="M132 70.3551H165.52V61.2273H143.071V17.9915H132V70.3551Z" fill="#062d16"></path><path d="M188.231 71.1222C200.146 71.1222 207.561 62.9659 207.561 50.8722C207.561 38.7017 200.146 30.571 188.231 30.571C176.317 30.571 168.902 38.7017 168.902 50.8722C168.902 62.9659 176.317 71.1222 188.231 71.1222ZM188.282 62.6847C182.785 62.6847 179.973 57.6477 179.973 50.7955C179.973 43.9432 182.785 38.8807 188.282 38.8807C193.677 38.8807 196.49 43.9432 196.49 50.7955C196.49 57.6477 193.677 62.6847 188.282 62.6847Z" fill="#062d16"></path><path d="M230.176 85.9006C241.401 85.9006 249.378 80.7869 249.378 70.7386V31.0824H238.563V37.679H238.154C236.696 34.483 233.5 30.571 226.929 30.571C218.313 30.571 211.026 37.2699 211.026 50.642C211.026 63.7074 218.108 69.7926 226.955 69.7926C233.219 69.7926 236.722 66.6477 238.154 63.4006H238.614V70.5852C238.614 75.9801 235.162 78.0767 230.432 78.0767C225.625 78.0767 223.196 75.9801 222.301 73.6023L212.228 74.9574C213.532 81.1449 219.591 85.9006 230.176 85.9006ZM230.407 61.6108C225.063 61.6108 222.148 57.3665 222.148 50.5909C222.148 43.9176 225.012 39.2386 230.407 39.2386C235.699 39.2386 238.665 43.7131 238.665 50.5909C238.665 57.5199 235.648 61.6108 230.407 61.6108Z" fill="#062d16"></path><path d="M273.63 71.1222C285.545 71.1222 292.96 62.9659 292.96 50.8722C292.96 38.7017 285.545 30.571 273.63 30.571C261.715 30.571 254.301 38.7017 254.301 50.8722C254.301 62.9659 261.715 71.1222 273.63 71.1222ZM273.681 62.6847C268.184 62.6847 265.372 57.6477 265.372 50.7955C265.372 43.9432 268.184 38.8807 273.681 38.8807C279.076 38.8807 281.889 43.9432 281.889 50.7955C281.889 57.6477 279.076 62.6847 273.681 62.6847Z" fill="#062d16"></path><path d="M297.882 70.3551H308.774V31.0824H297.882V70.3551ZM303.354 26.0199C306.601 26.0199 309.26 23.5398 309.26 20.4972C309.26 17.4801 306.601 15 303.354 15C300.132 15 297.473 17.4801 297.473 20.4972C297.473 23.5398 300.132 26.0199 303.354 26.0199Z" fill="#062d16"></path><path d="M315.339 85.0824H326.231V64.0653H326.564C328.072 67.3381 331.37 70.9943 337.711 70.9943C346.66 70.9943 353.64 63.9119 353.64 50.7699C353.64 37.2699 346.353 30.571 337.737 30.571C331.166 30.571 328.021 34.483 326.564 37.679H326.078V31.0824H315.339V85.0824ZM326.001 50.7188C326.001 43.7131 328.967 39.2386 334.26 39.2386C339.655 39.2386 342.518 43.9176 342.518 50.7188C342.518 57.571 339.603 62.3267 334.26 62.3267C329.018 62.3267 326.001 57.7244 326.001 50.7188Z" fill="#062d16"></path><path d="M391.418 42.2813C390.446 35.0455 384.617 30.571 374.696 30.571C364.648 30.571 358.026 35.2244 358.051 42.7926C358.026 48.6733 361.733 52.483 369.404 54.017L376.205 55.3722C379.631 56.0625 381.191 57.3153 381.242 59.2841C381.191 61.6108 378.659 63.2727 374.85 63.2727C370.963 63.2727 368.381 61.6108 367.716 58.4148L357.003 58.9773C358.026 66.4943 364.418 71.1222 374.824 71.1222C385 71.1222 392.287 65.9318 392.313 58.1847C392.287 52.5085 388.58 49.108 380.96 47.5483L373.852 46.1165C370.196 45.3239 368.841 44.071 368.867 42.179C368.841 39.8267 371.5 38.2926 374.875 38.2926C378.659 38.2926 380.909 40.3636 381.446 42.8949L391.418 42.2813Z" fill="#062d16"></path><path d="M422.196 53.6335C422.222 58.9006 418.616 61.6619 414.705 61.6619C410.588 61.6619 407.929 58.7727 407.903 54.1449V31.0824H397.011V56.0881C397.037 65.267 402.406 70.8665 410.307 70.8665C416.213 70.8665 420.457 67.8239 422.222 63.2216H422.631V70.3551H433.088V31.0824H422.196V53.6335Z" fill="#062d16"></path><path d="M439.64 70.3551H450.533V46.7813C450.533 42.4347 453.294 39.5455 456.925 39.5455C460.504 39.5455 462.908 42 462.908 45.8608V70.3551H473.467V46.3722C473.467 42.3068 475.794 39.5455 479.757 39.5455C483.234 39.5455 485.842 41.7188 485.842 46.0909V70.3551H496.709V43.9432C496.709 35.429 491.646 30.571 484.334 30.571C478.581 30.571 474.106 33.5114 472.496 38.0114H472.086C470.834 33.4602 466.819 30.571 461.425 30.571C456.132 30.571 452.118 33.3835 450.481 38.0114H450.021V31.0824H439.64V70.3551Z" fill="#062d16"></path></svg>